<?xml version="1.0" encoding="UTF-8"?>
<svg version="1.1" xmlns="http://www.w3.org/2000/svg" width="109" height="57">
<path d="M0 0 C3.96179555 0.47541547 4.61481471 1.31661333 7.125 4.375 C8.48153465 7.07037536 9.70127763 9.72690722 10.875 12.5 C14.8933505 21.70058215 19.08698182 30.8102261 23.35974121 39.89471436 C24.4226389 42.15588504 25.48136715 44.41897737 26.54003906 46.68212891 C27.20997973 48.10724059 27.88021487 49.53221388 28.55078125 50.95703125 C29.00198082 51.92330696 29.00198082 51.92330696 29.46229553 52.90910339 C31.48675584 57.19232763 33.73224581 61.28558351 36.125 65.375 C36.785 65.375 37.445 65.375 38.125 65.375 C38.13308685 64.67644394 38.14117371 63.97788788 38.14950562 63.25816345 C38.22767029 56.6526445 38.3150257 50.04731715 38.41252708 43.44205379 C38.46232589 40.04677804 38.50865621 36.65153093 38.546875 33.25610352 C38.59103887 29.34634346 38.65062151 25.43688928 38.7109375 21.52734375 C38.72248871 20.31666733 38.73403992 19.10599091 38.74594116 17.85862732 C38.99599228 3.50400772 38.99599228 3.50400772 42.125 0.375 C47.90214141 0.60155456 51.26076621 2.21859244 55.125 6.375 C57.21094497 8.88555432 59.23436722 11.43525786 61.23828125 14.01171875 C63.35881032 16.667868 65.68988993 19.00753187 68.125 21.375 C68.805625 22.2825 69.48625 23.19 70.1875 24.125 C71.90697451 26.39300215 71.90697451 26.39300215 73.88671875 27.32421875 C76.9339682 27.39335355 78.18941662 25.97756097 80.33764648 23.95776367 C81.09863647 23.20523315 81.09863647 23.20523315 81.875 22.4375 C82.66789429 21.6801355 82.66789429 21.6801355 83.47680664 20.9074707 C85.03861889 19.40884356 86.58299248 17.89396191 88.125 16.375 C88.91261719 15.61445313 89.70023437 14.85390625 90.51171875 14.0703125 C93.48174482 11.16251554 96.31202967 8.22358044 98.9375 5 C101.125 2.375 101.125 2.375 104.125 0.375 C106.75 0.1875 106.75 0.1875 109.125 0.375 C110.125 1.375 110.125 1.375 110.24525452 4.15272522 C110.24303391 5.39404709 110.24081329 6.63536896 110.23852539 7.91430664 C110.23867142 8.59720261 110.23881744 9.28009857 110.2389679 9.98368835 C110.23826876 12.25087614 110.2304764 14.51798274 110.22265625 16.78515625 C110.22079207 18.35314387 110.21936817 19.92113207 110.21836853 21.48912048 C110.21454334 25.62376503 110.20471306 29.75837466 110.19366455 33.89300537 C110.18345044 38.10900398 110.17887091 42.32500822 110.17382812 46.54101562 C110.16309079 54.81902647 110.14601436 63.0970089 110.125 71.375 C106.82822112 73.02338944 103.18183956 72.51772738 99.5625 72.5 C98.76908203 72.50386719 97.97566406 72.50773437 97.15820312 72.51171875 C91.25163067 72.50163067 91.25163067 72.50163067 90.125 71.375 C89.96674742 69.37717874 89.87380829 67.37411166 89.80859375 65.37109375 C89.76669922 64.15615234 89.72480469 62.94121094 89.68164062 61.68945312 C89.64232422 60.41005859 89.60300781 59.13066406 89.5625 57.8125 C89.51931641 56.52923828 89.47613281 55.24597656 89.43164062 53.92382812 C89.325152 50.74100147 89.22314038 47.55809326 89.125 44.375 C87.84563665 45.47682598 86.56877774 46.58156036 85.29296875 47.6875 C84.22598755 48.60982422 84.22598755 48.60982422 83.13745117 49.55078125 C81.44016241 51.08931596 79.94765192 52.65975089 78.4375 54.375 C76.125 56.375 76.125 56.375 73.7734375 56.3125 C70.26661217 55.0711459 68.81104656 53.21197246 66.4375 50.375 C63.67679038 46.87790207 63.67679038 46.87790207 60.125 44.375 C60.13547363 45.15214355 60.14594727 45.92928711 60.15673828 46.72998047 C60.19820282 50.236621 60.22429578 53.74321006 60.25 57.25 C60.26675781 58.47332031 60.28351563 59.69664063 60.30078125 60.95703125 C60.30722656 62.12363281 60.31367188 63.29023437 60.3203125 64.4921875 C60.33078613 65.57097168 60.34125977 66.64975586 60.35205078 67.76123047 C60.125 70.375 60.125 70.375 58.125 72.375 C56.3034668 72.62896729 56.3034668 72.62896729 54.07421875 72.63378906 C53.23995361 72.64009338 52.40568848 72.64639771 51.54614258 72.65289307 C50.64404053 72.6488446 49.74193848 72.64479614 48.8125 72.640625 C47.88783936 72.64253845 46.96317871 72.6444519 46.01049805 72.64642334 C44.05354541 72.64778566 42.09658376 72.64408596 40.13964844 72.63574219 C37.1371641 72.62504334 34.13527813 72.63563591 31.1328125 72.6484375 C29.23437367 72.64711591 27.33593522 72.64455354 25.4375 72.640625 C24.53539795 72.64467346 23.6332959 72.64872192 22.70385742 72.65289307 C21.45245972 72.64343658 21.45245972 72.64343658 20.17578125 72.63378906 C19.44012939 72.63219788 18.70447754 72.63060669 17.9465332 72.62896729 C16.125 72.375 16.125 72.375 14.125 70.375 C13.41091666 68.39143517 12.73882258 66.39184563 12.125 64.375 C8.35458744 64.17829446 4.58366237 63.99421574 0.8125 63.8125 C-0.25935547 63.75642578 -1.33121094 63.70035156 -2.43554688 63.64257812 C-3.97758789 63.57006836 -3.97758789 63.57006836 -5.55078125 63.49609375 C-6.49864502 63.4489624 -7.44650879 63.40183105 -8.4230957 63.35327148 C-11.01433025 63.25043867 -11.01433025 63.25043867 -13.875 64.375 C-14.92508653 66.34916268 -15.92487876 68.35082866 -16.875 70.375 C-18.875 72.375 -18.875 72.375 -22.7890625 72.5703125 C-24.35949351 72.55700376 -25.92986221 72.53313602 -27.5 72.5 C-28.30179687 72.49097656 -29.10359375 72.48195313 -29.9296875 72.47265625 C-31.91158523 72.44906223 -33.89332981 72.41319065 -35.875 72.375 C-37.0703125 70.7890625 -37.0703125 70.7890625 -37.875 68.375 C-36.96224776 65.9766648 -35.993289 63.97243602 -34.75 61.75 C-33.99292167 60.32267671 -33.2406577 58.89279354 -32.4921875 57.4609375 C-32.07420898 56.66268555 -31.65623047 55.86443359 -31.22558594 55.04199219 C-28.61854705 49.89389154 -26.26709295 44.62543811 -23.875 39.375 C-6.18888226 0.80724551 -6.18888226 0.80724551 0 0 Z M-1.875 34.375 C-4.98403596 38.77155642 -4.98403596 38.77155642 -5.625 43.8125 C-5.3775 44.328125 -5.13 44.84375 -4.875 45.375 C-2.235 45.375 0.405 45.375 3.125 45.375 C4.40722189 42.34429372 4.11089446 41.33903086 2.875 38.1875 C1.3703127 35.10209196 1.3703127 35.10209196 -1.875 34.375 Z " fill="#FEFEFE" transform="translate(301.875,6.625)"/>
<path d="M0 0 C5.51597725 3.92522725 10.91478897 8.84814572 12.6484375 15.609375 C12.2734375 18.421875 12.2734375 18.421875 11.6484375 20.609375 C7.97830963 21.83275096 5.13757495 21.65898239 1.2734375 21.484375 C-0.68722656 21.41863281 -0.68722656 21.41863281 -2.6875 21.3515625 C-7.08145261 20.46152946 -8.48710704 18.96073609 -11.3515625 15.609375 C-15.91341788 12.87226177 -21.19068931 12.96323036 -26.3515625 13.609375 C-31.17455202 15.7529259 -33.57061405 18.61032325 -35.65234375 23.3359375 C-37.18541694 28.32056654 -37.3445165 33.01275634 -35.46875 37.91796875 C-33.49119331 41.48673827 -31.62444924 43.42381202 -28.2265625 45.734375 C-22.56190273 47.01349172 -16.59848064 46.23283407 -11.3515625 43.609375 C-12.30869141 43.51849609 -12.30869141 43.51849609 -13.28515625 43.42578125 C-14.11144531 43.34199219 -14.93773437 43.25820313 -15.7890625 43.171875 C-16.61277344 43.09066406 -17.43648437 43.00945313 -18.28515625 42.92578125 C-20.3515625 42.609375 -20.3515625 42.609375 -21.3515625 41.609375 C-21.52986415 39.67728663 -21.61949667 37.73666128 -21.6640625 35.796875 C-21.72013672 34.20939453 -21.72013672 34.20939453 -21.77734375 32.58984375 C-21.2512554 28.90722533 -20.2929742 27.81929727 -17.3515625 25.609375 C-14.02067073 24.50200485 -10.76513839 24.41278202 -7.2734375 24.29296875 C-5.53320312 24.23012695 -5.53320312 24.23012695 -3.7578125 24.16601562 C-2.55125 24.12669922 -1.3446875 24.08738281 -0.1015625 24.046875 C1.73148438 23.98209961 1.73148438 23.98209961 3.6015625 23.91601562 C6.6170767 23.81000145 9.63267198 23.70793564 12.6484375 23.609375 C15.44779973 29.20809945 14.30476237 37.98407551 12.8125 43.953125 C9.56319396 52.41440516 4.55014314 59.88147504 -3.6640625 64.109375 C-13.29587155 68.02739902 -27.10068002 68.68705851 -37.0390625 65.171875 C-47.16368838 59.97372182 -53.25351989 52.05862756 -57.3515625 41.609375 C-59.90280527 33.45478922 -58.77102553 24.32244951 -55.3515625 16.609375 C-49.68480718 7.13043883 -41.37488601 -0.49866826 -31.1640625 -4.703125 C-20.171988 -6.68530237 -9.74129198 -5.76063114 0 0 Z " fill="#FEFEFE" transform="translate(61.3515625,12.390625)"/>
<path d="M0 0 C1.93166016 0.01740234 1.93166016 0.01740234 3.90234375 0.03515625 C5.19269531 0.04417969 6.48304688 0.05320312 7.8125 0.0625 C8.81152344 0.07410156 9.81054688 0.08570313 10.83984375 0.09765625 C12.46555064 2.96790896 13.09160014 5.03658047 13.11108398 8.32788086 C13.1212706 9.15231186 13.13145721 9.97674286 13.14195251 10.82615662 C13.14409256 11.70852493 13.1462326 12.59089325 13.1484375 13.5 C13.17359372 15.37825836 13.1989918 17.2565135 13.22460938 19.13476562 C13.25336229 22.08845206 13.27738773 25.04208258 13.29614258 27.99584961 C13.31781201 30.85169059 13.35724748 33.70688359 13.3984375 36.5625 C13.39855331 37.44284409 13.39866913 38.32318817 13.39878845 39.23020935 C13.47542865 43.98522867 13.71698897 47.2531514 16.83984375 51.09765625 C19.16670828 52.26108852 20.68705788 52.29661613 23.27734375 52.34765625 C24.45103516 52.38632813 24.45103516 52.38632813 25.6484375 52.42578125 C28.40483832 52.01305813 29.09251072 51.22455407 30.83984375 49.09765625 C32.34264061 40.98596865 31.920666 32.69343344 31.83984375 24.47265625 C31.8130222 21.730472 31.79315296 18.9883612 31.77734375 16.24609375 C31.76574219 15.04130371 31.75414062 13.83651367 31.7421875 12.59521484 C31.84297685 8.98544416 32.07985175 5.63107618 32.83984375 2.09765625 C36.54225657 -0.37061897 38.49895485 -0.13993401 42.90234375 -0.08984375 C44.77599609 -0.08017578 44.77599609 -0.08017578 46.6875 -0.0703125 C49.83984375 0.09765625 49.83984375 0.09765625 51.83984375 1.09765625 C51.88972261 7.00177821 51.92578755 12.90577429 51.94970703 18.81005859 C51.95969123 20.81366109 51.9732833 22.8172493 51.99072266 24.82080078 C52.25164206 55.59394182 52.25164206 55.59394182 43.83984375 65.09765625 C37.07763626 70.93774454 28.32030677 72.67509788 19.5703125 72.37890625 C11.53781163 71.55152419 4.54130924 68.97029738 -1.16015625 63.09765625 C-5.99607886 55.94890108 -6.31770786 48.80099392 -6.328125 40.4140625 C-6.3314534 39.48093735 -6.3347818 38.54781219 -6.33821106 37.58641052 C-6.34326318 35.61710095 -6.34561992 33.64778285 -6.34545898 31.6784668 C-6.34764605 28.67417243 -6.36582159 25.67024512 -6.38476562 22.66601562 C-6.38769983 20.74869917 -6.38968444 18.83138097 -6.390625 16.9140625 C-6.39781052 16.02014297 -6.40499603 15.12622345 -6.41239929 14.20521545 C-6.36135186 0.19658071 -6.36135186 0.19658071 0 0 Z " fill="#FEFEFE" transform="translate(157.16015625,7.90234375)"/>
<path d="M0 0 C1.2375 -0.103125 2.475 -0.20625 3.75 -0.3125 C4.44609375 -0.37050781 5.1421875 -0.42851563 5.859375 -0.48828125 C9.15916769 0.26440869 10.05824289 2.28059141 12 5 C13.31449275 7.49417021 14.54349309 9.96408336 15.72265625 12.51953125 C16.23607071 13.61118088 16.23607071 13.61118088 16.75985718 14.72488403 C17.86739895 17.08436966 18.96514347 19.4482625 20.0625 21.8125 C20.8231719 23.4391067 21.58432379 25.06548902 22.34594727 26.69165039 C24.57434469 31.4563048 26.78917142 36.22717279 29 41 C29.31223511 41.67341431 29.62447021 42.34682861 29.94616699 43.04064941 C37.69019767 59.74652634 37.69019767 59.74652634 40 65 C40.58793335 66.3139978 40.58793335 66.3139978 41.18774414 67.65454102 C41.45578857 68.42854248 41.72383301 69.20254395 42 70 C41.67 70.66 41.34 71.32 41 72 C37.89601022 72.08710289 34.79233452 72.14042309 31.6875 72.1875 C30.80642578 72.21263672 29.92535156 72.23777344 29.01757812 72.26367188 C28.17001953 72.27333984 27.32246094 72.28300781 26.44921875 72.29296875 C25.66893311 72.3086792 24.88864746 72.32438965 24.0847168 72.34057617 C21.38567664 71.89963917 20.63239024 71.17444913 19 69 C18.34 67.35 17.68 65.7 17 64 C4.13 63.505 4.13 63.505 -9 63 C-9.66 65.31 -10.32 67.62 -11 70 C-14.07144133 72.04762755 -14.69850959 72.2500695 -18.16015625 72.23046875 C-18.95357422 72.22853516 -19.74699219 72.22660156 -20.56445312 72.22460938 C-21.38880859 72.21236328 -22.21316406 72.20011719 -23.0625 72.1875 C-23.89072266 72.18685547 -24.71894531 72.18621094 -25.57226562 72.18554688 C-31.71893064 72.14053468 -31.71893064 72.14053468 -34 71 C-33.47507239 66.46834645 -32.35828138 63.47398725 -29.9375 59.625 C-21.94814742 46.36847344 -15.62624062 32.14124951 -8.92358398 18.20336914 C-5.99367755 12.11249873 -3.04685921 6.03338457 0 0 Z M3 34 C0.96564469 37.72965139 0 39.66905042 0 44 C4.61507774 45.04214691 4.61507774 45.04214691 9 44 C8.43697042 40.05879291 7.3208055 37.2491277 5 34 C4.34 34 3.68 34 3 34 Z " fill="#FEFEFE" transform="translate(107,7)"/>
<path d="M0 0 C1.03454819 -0.00960754 2.06909637 -0.01921509 3.13499451 -0.02911377 C4.26099564 -0.03336365 5.38699677 -0.03761353 6.54711914 -0.04199219 C8.2691732 -0.0505423 8.2691732 -0.0505423 10.02601624 -0.05926514 C12.45971754 -0.06873145 14.89343176 -0.07525556 17.32714844 -0.07910156 C21.06280698 -0.08881656 24.7979178 -0.11982918 28.53344727 -0.15136719 C30.89216794 -0.1578958 33.25089257 -0.16314683 35.60961914 -0.16699219 C37.29558449 -0.18551239 37.29558449 -0.18551239 39.01560974 -0.20440674 C40.05331009 -0.20140564 41.09101044 -0.19840454 42.16015625 -0.1953125 C43.07647324 -0.19895813 43.99279022 -0.20260376 44.93687439 -0.20635986 C45.66548172 -0.08508728 46.39408905 0.0361853 47.14477539 0.16113281 C49.54980892 3.76868311 49.38442949 5.5094967 49.33227539 9.78613281 C49.32583008 10.95402344 49.31938477 12.12191406 49.31274414 13.32519531 C49.14477539 16.16113281 49.14477539 16.16113281 48.14477539 17.16113281 C45.6188128 17.39766804 43.11370332 17.58286973 40.58227539 17.72363281 C39.51589844 17.7884082 39.51589844 17.7884082 38.42797852 17.85449219 C36.66715627 17.96085058 34.90599219 18.06152127 33.14477539 18.16113281 C33.13890915 18.79562347 33.13304291 19.43011414 33.1269989 20.08383179 C33.06321387 26.66979307 32.97883372 33.25525891 32.88232422 39.84082031 C32.84900773 42.30071493 32.82099703 44.76068724 32.79833984 47.22070312 C32.76491758 50.75066331 32.71260774 54.27990715 32.65649414 57.80957031 C32.64690926 59.46743057 32.64690926 59.46743057 32.63713074 61.15878296 C32.61733658 62.17969025 32.59754242 63.20059753 32.57714844 64.25244141 C32.56604538 65.1540097 32.55494232 66.055578 32.54350281 66.98446655 C32.41192276 67.70276642 32.28034271 68.42106628 32.14477539 69.16113281 C28.37383494 71.67509311 25.37798094 71.42139723 21.01977539 71.34863281 C20.27856445 71.34798828 19.53735352 71.34734375 18.77368164 71.34667969 C13.28516998 71.3015274 13.28516998 71.3015274 12.14477539 70.16113281 C12.02195587 68.53534064 11.96695035 66.90436278 11.93945312 65.27416992 C11.9195079 64.23316635 11.89956268 63.19216278 11.87901306 62.11961365 C11.86230057 60.98733841 11.84558807 59.85506317 11.82836914 58.68847656 C11.80758804 57.53569717 11.78680695 56.38291779 11.76539612 55.19520569 C11.69977575 51.49641125 11.64095784 47.79754322 11.58227539 44.09863281 C11.53910204 41.59797402 11.49548815 39.0973228 11.45141602 36.59667969 C11.34408171 30.45157619 11.24233896 24.30639877 11.14477539 18.16113281 C10.08516602 18.12375 9.02555664 18.08636719 7.93383789 18.04785156 C6.54578115 17.98220023 5.1577619 17.9157526 3.76977539 17.84863281 C3.07110352 17.82607422 2.37243164 17.80351562 1.65258789 17.78027344 C-0.37866211 17.67285156 -0.37866211 17.67285156 -3.85522461 17.16113281 C-6.26025814 13.55358251 -6.09487871 11.81276892 -6.04272461 7.53613281 C-6.0362793 6.36824219 -6.02983398 5.20035156 -6.02319336 3.99707031 C-5.7479926 -0.64934254 -4.21797243 0.03145784 0 0 Z " fill="#FEFEFE" transform="translate(218.855224609375,7.8388671875)"/>
<path d="M0 0 C4.60273973 2.20547945 4.60273973 2.20547945 6 5 C6.38112297 9.03990348 6.4240682 11.29321967 4.3125 14.8125 C1.32193695 17.64141099 -0.78839281 18.92495544 -4.95703125 19.06640625 C-8.62501217 18.84183599 -10.5889609 18.31078566 -13.5625 16.0625 C-15.6822459 11.54651961 -15.35189666 7.7516368 -14 3 C-10.19398612 -2.11433115 -5.66725785 -1.45788155 0 0 Z " fill="#FEFEFE" transform="translate(459,61)"/>
<path d="" fill="#FFFFFF" transform="translate(0,0)"/>
<path d="" fill="#FFFFFF" transform="translate(0,0)"/>
<path d="" fill="#FFFFFF" transform="translate(0,0)"/>
</svg>
